<?xml version="1.0" standalone="no"?>
<!DOCTYPE svg PUBLIC "-//W3C//DTD SVG 20010904//EN"
 "http://www.w3.org/TR/2001/REC-SVG-20010904/DTD/svg10.dtd">
<svg version="1.0" xmlns="http://www.w3.org/2000/svg"
 width="20.000000pt" height="23.000000pt" viewBox="0 0 20.000000 23.000000"
 preserveAspectRatio="xMidYMid meet">
<metadata>
Created by potrace 1.10, written by Peter Selinger 2001-2011
</metadata>
<g transform="translate(0.000000,23.000000) scale(0.100000,-0.100000)"
fill="#ffffff" stroke="none">
<path d="M86 174 c-9 -8 -14 -19 -11 -24 3 -4 -2 -10 -10 -14 -18 -7 -20 -32
-2 -43 6 -4 12 -24 12 -43 0 -29 4 -36 23 -38 20 -3 22 1 22 37 0 23 4 41 9
41 19 0 22 35 5 47 -10 7 -12 13 -6 13 7 0 12 9 12 20 0 25 -32 27 -54 4z m32
-15 c-23 -13 -23 -39 0 -40 16 -1 16 -2 0 -6 -14 -3 -18 -16 -20 -51 l-1 -47
-4 45 c-3 24 -10 48 -16 52 -9 6 -9 8 1 8 6 0 12 11 12 25 0 19 5 25 23 25 20
-1 20 -2 5 -11z"/>
</g>
</svg>
