<?xml version="1.0" standalone="no"?>
<!DOCTYPE svg PUBLIC "-//W3C//DTD SVG 20010904//EN"
 "http://www.w3.org/TR/2001/REC-SVG-20010904/DTD/svg10.dtd">
<svg version="1.0" xmlns="http://www.w3.org/2000/svg"
 width="26.000000pt" height="23.000000pt" viewBox="0 0 26.000000 23.000000"
 preserveAspectRatio="xMidYMid meet">
<metadata>
Created by potrace 1.10, written by Peter Selinger 2001-2011
</metadata>
<g transform="translate(0.000000,23.000000) scale(0.100000,-0.100000)"
fill="#ffffff" stroke="none">
<path d="M141 158 c-12 -4 -21 -12 -21 -18 0 -15 -21 -12 -42 7 -10 9 -21 13
-24 10 -14 -13 -12 -61 3 -83 14 -22 14 -24 -2 -24 -27 0 -11 -24 21 -33 51
-15 100 13 124 68 11 26 20 53 20 60 0 16 -50 24 -79 13z m47 -17 c11 -6 10
-15 -3 -48 -18 -44 -48 -63 -98 -62 -29 0 -30 1 -9 9 21 9 21 10 5 29 -9 11
-18 32 -20 47 -4 25 -3 25 19 10 30 -21 45 -20 53 4 7 21 30 26 53 11z"/>
</g>
</svg>
