<?xml version="1.0" standalone="no"?>
<!DOCTYPE svg PUBLIC "-//W3C//DTD SVG 20010904//EN"
 "http://www.w3.org/TR/2001/REC-SVG-20010904/DTD/svg10.dtd">
<svg version="1.0" xmlns="http://www.w3.org/2000/svg"
 width="212.000000pt" height="300.000000pt" viewBox="0 0 212.000000 300.000000"
 preserveAspectRatio="xMidYMid meet">
<metadata>
Created by potrace 1.10, written by Peter Selinger 2001-2011
</metadata>
<g transform="translate(0.000000,300.000000) scale(0.100000,-0.100000)"
fill="#ffffff" stroke="none">
<path d="M816 2734 c-324 -72 -494 -268 -591 -681 -30 -128 -46 -278 -52 -503
-9 -335 17 -565 89 -789 119 -374 333 -543 705 -558 487 -21 753 212 852 743
35 188 44 302 44 549 0 249 -12 382 -53 565 -83 371 -250 579 -530 660 -101
29 -361 37 -464 14z m375 -50 c329 -58 508 -284 589 -744 19 -105 23 -169 26
-405 3 -281 -2 -355 -32 -540 -66 -407 -238 -642 -521 -716 -160 -41 -374 -35
-519 15 -103 35 -162 72 -236 147 -125 126 -215 356 -254 649 -23 168 -23 562
0 749 64 531 250 787 618 850 76 13 243 11 329 -5z"/>
<path d="M970 2311 c-62 -13 -115 -61 -141 -128 -43 -112 -67 -566 -50 -968
18 -446 51 -542 197 -576 70 -16 127 1 180 55 78 77 93 176 101 656 9 577 -17
825 -96 907 -44 46 -121 68 -191 54z m119 -65 c86 -45 112 -201 116 -706 3
-451 -14 -680 -57 -768 -27 -57 -68 -82 -135 -82 -44 0 -58 5 -87 30 -75 66
-95 226 -94 760 1 535 20 685 94 750 29 25 43 30 85 30 27 0 63 -7 78 -14z"/>
</g>
</svg>
