<?xml version="1.0" standalone="no"?>
<!DOCTYPE svg PUBLIC "-//W3C//DTD SVG 20010904//EN"
 "http://www.w3.org/TR/2001/REC-SVG-20010904/DTD/svg10.dtd">
<svg version="1.0" xmlns="http://www.w3.org/2000/svg"
 width="300.000000pt" height="424.000000pt" viewBox="0 0 300.000000 424.000000"
 preserveAspectRatio="xMidYMid meet">
<metadata>
Created by potrace 1.10, written by Peter Selinger 2001-2011
</metadata>
<g transform="translate(0.000000,424.000000) scale(0.050000,-0.050000)"
fill="#ffffff" stroke="none">
<path d="M2500 7767 c-233 -33 -352 -57 -490 -100 -795 -246 -1300 -887 -1520
-1932 -92 -434 -100 -424 410 -526 1294 -258 1151 -277 1220 158 106 673 262
903 612 899 574 -6 627 -910 101 -1710 -261 -398 -1154 -1297 -1963 -1978 -44
-37 -159 -138 -255 -225 l-175 -157 0 -719 0 -719 49 -49 49 -49 2202 0 2202
0 45 45 c52 52 68 171 123 915 17 226 35 430 41 455 8 36 -31 171 -55 190 -3
2 -562 9 -1241 15 l-1235 10 325 243 c878 654 1374 1154 1705 1717 838 1424
318 3087 -1076 3439 -304 77 -819 115 -1074 78z m807 -177 c1358 -204 1992
-1650 1332 -3039 -346 -728 -1042 -1401 -2460 -2375 -46 -32 30 -34 1389 -35
l1438 -1 -13 -105 c-7 -58 -31 -343 -53 -635 -23 -291 -45 -541 -50 -555 -7
-20 -457 -25 -2159 -25 l-2151 0 0 650 0 649 65 58 c36 32 223 195 415 364
930 814 1567 1450 1830 1829 660 951 599 2008 -119 2046 -466 24 -709 -296
-810 -1066 -13 -99 -27 -182 -30 -186 -11 -11 -1319 257 -1334 272 -19 20 73
442 144 664 283 879 861 1398 1669 1498 99 12 203 26 230 31 81 13 467 -9 667
-39z"/>
</g>
</svg>
