<?xml version="1.0" standalone="no"?>
<!DOCTYPE svg PUBLIC "-//W3C//DTD SVG 20010904//EN"
 "http://www.w3.org/TR/2001/REC-SVG-20010904/DTD/svg10.dtd">
<svg version="1.0" xmlns="http://www.w3.org/2000/svg"
 width="63.000000pt" height="61.000000pt" viewBox="0 0 63.000000 61.000000"
 preserveAspectRatio="xMidYMid meet">
<metadata>
Created by potrace 1.10, written by Peter Selinger 2001-2011
</metadata>
<g transform="translate(0.000000,61.000000) scale(0.100000,-0.100000)"
fill="#817979" stroke="none">
<path d="M310 570 c0 -4 -11 -5 -25 -2 -26 5 -33 -1 -134 -99 -26 -25 -42 -52
-50 -85 -7 -27 -17 -57 -22 -66 -5 -10 -9 -29 -9 -42 0 -22 5 -25 58 -32 75
-11 302 -11 375 -1 52 8 57 11 57 33 0 13 -4 32 -9 42 -5 9 -15 39 -22 66 -12
48 -27 67 -129 161 -23 21 -90 40 -90 25z m2 -77 l2 -58 3 58 4 57 34 0 c35 0
35 0 36 -47 1 -30 4 -37 6 -20 6 37 20 34 68 -16 28 -30 45 -59 54 -93 7 -27
17 -57 22 -66 26 -50 -6 -58 -226 -58 -178 0 -235 8 -235 31 0 10 5 21 10 24
6 3 10 14 10 23 0 50 25 100 73 147 l52 50 6 -35 c6 -33 6 -32 8 13 1 47 1 47
36 47 l35 0 2 -57z"/>
<path d="M155 320 c8 -14 325 -14 325 0 0 6 -62 10 -166 10 -107 0 -163 -3
-159 -10z"/>
<path d="M123 190 c-10 -11 -25 -20 -35 -20 -14 0 -18 -8 -18 -40 0 -28 4 -40
14 -40 8 0 28 -13 44 -30 42 -42 101 -42 143 -1 16 16 29 39 29 50 0 32 28 25
35 -9 16 -72 112 -95 167 -40 16 17 36 30 44 30 10 0 14 12 14 40 0 32 -4 40
-18 40 -11 0 -27 9 -37 20 -17 19 -31 20 -192 20 -161 0 -174 -1 -190 -20z
m42 -31 c-36 -37 -40 -38 -43 -19 -6 35 5 48 40 53 18 2 35 5 38 5 2 1 -14
-16 -35 -39z m15 -24 c-29 -30 -56 -52 -59 -50 -6 7 90 105 103 105 6 0 -14
-25 -44 -55z m30 -10 c-35 -36 -69 -65 -74 -65 -6 0 19 29 54 65 35 36 69 65
74 65 6 0 -19 -29 -54 -65z m298 9 c4 -66 -12 -84 -77 -84 -51 0 -73 15 -86
60 -4 14 -12 28 -18 32 -16 10 -37 -2 -37 -22 0 -9 -9 -29 -21 -44 -17 -21
-29 -26 -67 -26 l-46 0 69 70 70 71 105 -3 105 -3 3 -51z m-398 -9 c0 -18 -4
-23 -15 -19 -20 8 -20 44 0 44 9 0 15 -9 15 -25z m440 5 c0 -11 -7 -20 -15
-20 -8 0 -15 9 -15 20 0 11 7 20 15 20 8 0 15 -9 15 -20z"/>
</g>
</svg>
