<?xml version="1.0" standalone="no"?>
<!DOCTYPE svg PUBLIC "-//W3C//DTD SVG 20010904//EN"
 "http://www.w3.org/TR/2001/REC-SVG-20010904/DTD/svg10.dtd">
<svg version="1.0" xmlns="http://www.w3.org/2000/svg"
 width="300.000000pt" height="424.000000pt" viewBox="0 0 300.000000 424.000000"
 preserveAspectRatio="xMidYMid meet">
<metadata>
Created by potrace 1.10, written by Peter Selinger 2001-2011
</metadata>
<g transform="translate(0.000000,424.000000) scale(0.100000,-0.100000)"
fill="#fbfbfb" stroke="none">
<path d="M545 3818 c-30 -27 -30 -24 -50 -358 -8 -140 -17 -286 -20 -325 -9
-138 -15 -223 -25 -390 -6 -93 -12 -199 -15 -235 -11 -148 -35 -539 -36 -593
-3 -87 5 -92 212 -133 377 -74 451 -86 475 -75 13 6 35 34 50 63 64 129 132
176 262 185 178 12 283 -67 347 -262 38 -116 27 -378 -21 -481 -62 -137 -200
-204 -358 -175 -157 29 -244 129 -282 326 -20 98 -39 125 -89 125 -16 0 -113
-14 -215 -30 -102 -17 -196 -33 -210 -35 -316 -51 -320 -53 -320 -132 0 -150
90 -401 197 -551 213 -299 561 -462 988 -462 591 0 1023 309 1155 826 74 291
66 668 -21 954 -69 228 -241 430 -465 547 -126 65 -183 83 -343 104 -184 25
-421 -31 -550 -130 l-34 -26 6 65 c4 36 9 133 12 215 3 83 8 160 11 173 l4 22
564 0 c661 0 609 -10 622 112 4 40 8 75 9 78 1 3 5 39 9 80 7 68 20 188 31
280 2 19 7 76 11 126 7 90 7 90 -21 112 l-28 22 -918 0 -918 0 -26 -22z m1867
-19 c19 -10 20 -17 13 -113 -3 -55 -8 -114 -10 -131 -2 -16 -9 -64 -14 -105
-6 -41 -12 -104 -15 -140 -9 -110 -27 -224 -38 -237 -8 -10 -135 -13 -573 -13
-533 0 -563 -1 -579 -18 -18 -21 -35 -196 -38 -383 -1 -128 9 -143 68 -102 62
45 143 81 224 102 96 24 200 35 200 22 0 -5 -8 -9 -17 -9 -78 4 -301 -60 -344
-98 -8 -8 -19 -14 -22 -14 -8 0 -35 -21 -94 -74 l-43 -39 0 29 c0 16 5 103 11
194 6 91 10 191 10 223 -1 32 2 64 6 70 4 6 5 33 4 59 l-2 48 570 0 570 0 25
23 c20 18 26 35 31 92 4 39 11 104 16 145 6 41 12 95 14 120 3 25 7 63 9 85 2
22 7 83 11 136 7 84 5 97 -10 113 -18 17 -63 18 -889 15 -479 -2 -883 -5 -897
-7 -39 -6 -49 -32 -54 -154 -3 -62 -10 -169 -15 -238 -5 -69 -12 -180 -16
-247 -4 -70 -11 -123 -17 -123 -10 0 -8 52 14 355 5 77 12 190 15 250 5 114 9
141 26 163 14 16 1818 18 1850 1z m-26 -61 c-3 -18 -8 -60 -11 -93 -4 -33 -8
-73 -11 -90 -2 -16 -13 -120 -24 -230 -11 -110 -23 -206 -25 -213 -4 -10 -127
-12 -591 -12 -323 0 -588 -1 -589 -2 -2 -2 -6 -61 -9 -133 -8 -160 -25 -471
-30 -545 l-4 -55 81 80 c89 88 173 138 287 171 95 27 325 25 431 -4 149 -40
348 -163 437 -270 164 -197 233 -433 234 -802 0 -388 -88 -651 -287 -858 -163
-171 -378 -278 -625 -312 -106 -15 -333 -14 -430 0 -97 15 -229 52 -305 85
-74 33 -204 118 -269 176 -162 144 -295 407 -318 630 l-5 47 76 12 c42 7 85
14 96 16 11 2 119 19 240 39 121 20 229 39 241 41 18 5 22 0 27 -38 11 -79 56
-202 96 -258 75 -108 174 -156 326 -159 150 -3 255 44 326 146 117 168 128
523 22 727 -24 46 -113 136 -158 159 -99 50 -241 57 -348 17 -72 -27 -151
-103 -187 -179 -28 -61 -8 -59 -200 -22 -58 11 -173 33 -257 48 l-152 28 4 60
c3 33 11 175 20 315 8 140 17 287 20 325 8 113 14 199 25 380 6 94 12 200 15
236 6 87 35 540 35 557 0 9 187 12 900 12 l901 0 -5 -32z m-1877 -815 c-4 -48
-10 -144 -14 -213 -3 -69 -8 -143 -10 -165 -11 -93 -36 -516 -35 -585 1 -84
13 -105 63 -113 73 -12 104 -17 152 -27 167 -33 263 -52 285 -54 14 -2 45 -6
70 -10 l45 -7 38 66 c54 94 81 121 156 157 140 66 319 39 421 -65 93 -95 133
-220 133 -417 0 -253 -56 -386 -195 -460 -56 -31 -73 -35 -159 -38 -191 -8
-295 50 -374 207 -14 29 -24 59 -21 66 3 8 1 15 -4 17 -5 2 -11 12 -13 23 -26
141 -25 139 -101 131 -75 -8 -99 -11 -184 -26 -37 -6 -147 -24 -245 -40 -98
-17 -187 -35 -199 -41 -19 -10 -20 -17 -15 -88 9 -121 106 -382 165 -447 10
-11 28 -35 42 -54 36 -52 147 -159 220 -211 84 -60 166 -101 276 -138 145 -48
161 -51 336 -61 142 -7 187 -6 295 9 251 36 452 127 615 281 250 234 355 549
336 1005 -8 204 -10 213 -43 340 -49 186 -107 296 -219 414 -162 170 -366 270
-585 287 -78 6 -89 9 -78 20 8 9 174 -13 252 -33 74 -18 222 -90 295 -143 231
-168 351 -395 390 -745 20 -186 9 -456 -26 -600 -8 -33 -17 -69 -19 -79 -33
-145 -129 -320 -239 -435 -172 -179 -349 -268 -651 -327 -68 -13 -324 -16
-408 -5 -288 38 -497 135 -677 311 -88 87 -145 167 -200 283 -71 147 -122 396
-88 424 14 12 21 14 108 28 25 4 54 9 65 12 11 2 45 8 75 12 30 5 138 23 239
40 102 17 199 31 217 31 36 0 31 11 68 -135 46 -183 131 -277 280 -310 117
-25 224 -8 298 48 100 77 148 201 154 402 3 105 0 144 -15 203 -42 160 -118
260 -229 301 -52 20 -75 23 -150 19 -133 -7 -213 -58 -276 -177 -20 -38 -45
-72 -55 -76 -15 -5 -393 59 -411 70 -3 1 -27 6 -55 9 -63 9 -134 26 -159 38
-17 9 -18 20 -12 167 4 86 9 185 11 221 17 217 27 367 31 450 2 52 7 115 10
140 4 25 6 69 5 97 -3 56 6 96 18 89 3 -3 4 -44 0 -93z"/>
</g>
</svg>
