<?xml version="1.0" standalone="no"?>
<!DOCTYPE svg PUBLIC "-//W3C//DTD SVG 20010904//EN"
 "http://www.w3.org/TR/2001/REC-SVG-20010904/DTD/svg10.dtd">
<svg version="1.0" xmlns="http://www.w3.org/2000/svg"
 width="165.000000pt" height="141.000000pt" viewBox="0 0 165.000000 141.000000"
 preserveAspectRatio="xMidYMid meet">
<metadata>
Created by potrace 1.10, written by Peter Selinger 2001-2011
</metadata>
<g transform="translate(0.000000,141.000000) scale(0.100000,-0.100000)"
fill="#3b3838" stroke="none">
<path d="M654 1280 c-30 -12 -76 -70 -70 -87 4 -8 6 -19 6 -24 0 -19 29 -8 36
13 16 51 38 57 194 58 l146 0 24 -40 c29 -46 47 -51 56 -13 6 22 1 32 -34 65
l-41 38 -148 -1 c-81 0 -157 -4 -169 -9z"/>
<path d="M27 1103 l-27 -4 0 -550 0 -549 825 0 825 0 0 549 0 548 -52 7 c-57
6 -1525 6 -1571 -1z m1581 -291 l2 -249 -162 3 -163 3 3 46 c5 64 -7 75 -83
75 -75 0 -86 -10 -83 -75 l3 -48 -310 1 -310 1 3 47 c3 64 -8 74 -83 74 -75 0
-87 -11 -83 -75 l3 -47 -162 -2 -163 -3 0 247 c0 136 2 249 4 251 2 2 359 3
793 2 l788 -2 3 -249z m-1143 -267 l0 -100 -40 0 -40 0 -3 89 c-2 49 0 96 3
103 3 10 17 13 42 11 l38 -3 0 -100z m780 0 l0 -100 -40 0 -40 0 -3 89 c-2 49
0 96 3 103 3 10 17 13 42 11 l38 -3 0 -100z m-903 -69 c-5 -65 7 -76 83 -76
75 0 86 10 83 74 l-3 47 310 0 310 0 -3 -47 c-1 -26 3 -53 9 -60 15 -18 134
-19 146 -1 4 6 8 34 8 60 l0 48 163 3 162 3 0 -254 0 -253 -795 0 -795 0 0
253 0 253 163 -2 162 -2 -3 -46z"/>
</g>
</svg>
