<?xml version="1.0" standalone="no"?>
<!DOCTYPE svg PUBLIC "-//W3C//DTD SVG 20010904//EN"
 "http://www.w3.org/TR/2001/REC-SVG-20010904/DTD/svg10.dtd">
<svg version="1.0" xmlns="http://www.w3.org/2000/svg"
 width="56.000000pt" height="68.000000pt" viewBox="0 0 56.000000 68.000000"
 preserveAspectRatio="xMidYMid meet">
<metadata>
Created by potrace 1.10, written by Peter Selinger 2001-2011
</metadata>
<g transform="translate(0.000000,68.000000) scale(0.100000,-0.100000)"
fill="#9197a1" stroke="none">
<path d="M20 330 l0 -280 168 0 168 0 52 53 52 53 0 227 0 227 -220 0 -220 0
0 -280z m430 55 l0 -215 -50 0 -50 0 0 -55 0 -55 -160 0 -160 0 0 270 0 270
210 0 210 0 0 -215z m-10 -228 c0 -2 -18 -21 -40 -42 l-40 -39 0 42 0 42 40 0
c22 0 40 -1 40 -3z"/>
<path d="M100 435 l0 -45 70 0 70 0 0 45 0 45 -70 0 -70 0 0 -45z m130 0 l0
-35 -60 0 -60 0 0 35 0 35 60 0 60 0 0 -35z"/>
<path d="M313 473 c15 -2 37 -2 50 0 12 2 0 4 -28 4 -27 0 -38 -2 -22 -4z"/>
<path d="M313 433 c15 -2 37 -2 50 0 12 2 0 4 -28 4 -27 0 -38 -2 -22 -4z"/>
<path d="M313 393 c15 -2 37 -2 50 0 12 2 0 4 -28 4 -27 0 -38 -2 -22 -4z"/>
<path d="M168 293 c39 -2 105 -2 145 0 39 1 7 3 -73 3 -80 0 -112 -2 -72 -3z"/>
<path d="M168 253 c39 -2 105 -2 145 0 39 1 7 3 -73 3 -80 0 -112 -2 -72 -3z"/>
<path d="M168 213 c39 -2 105 -2 145 0 39 1 7 3 -73 3 -80 0 -112 -2 -72 -3z"/>
</g>
</svg>
