<?xml version="1.0" standalone="no"?>
<!DOCTYPE svg PUBLIC "-//W3C//DTD SVG 20010904//EN"
 "http://www.w3.org/TR/2001/REC-SVG-20010904/DTD/svg10.dtd">
<svg version="1.0" xmlns="http://www.w3.org/2000/svg"
 width="65.000000pt" height="76.000000pt" viewBox="0 0 65.000000 76.000000"
 preserveAspectRatio="xMidYMid meet">
<metadata>
Created by potrace 1.10, written by Peter Selinger 2001-2011
</metadata>
<g transform="translate(0.000000,76.000000) scale(0.100000,-0.100000)"
fill="#9197a1" stroke="none">
<path d="M225 600 c-12 -13 -16 -28 -12 -48 5 -24 0 -35 -31 -65 -30 -29 -42
-34 -65 -30 -59 12 -90 -58 -42 -95 23 -19 25 -26 25 -107 0 -81 -2 -88 -25
-107 -14 -11 -25 -30 -25 -42 0 -28 29 -56 58 -56 21 0 52 24 52 41 0 5 41 9
91 9 85 0 92 -2 111 -25 11 -14 30 -25 42 -25 32 0 60 33 54 64 -7 35 62 102
98 98 31 -4 64 23 64 54 0 12 -11 31 -25 42 -23 19 -25 26 -25 107 0 81 2 88
25 107 29 23 32 58 7 81 -26 24 -57 21 -80 -8 -19 -23 -26 -25 -107 -25 -81 0
-88 2 -107 25 -23 30 -58 32 -83 5z m69 -6 c9 -8 16 -22 16 -29 0 -18 -27 -45
-45 -45 -18 0 -45 27 -45 45 0 18 27 45 45 45 7 0 21 -7 29 -16z m300 0 c9 -8
16 -22 16 -29 0 -18 -27 -45 -45 -45 -7 0 -21 7 -29 16 -9 8 -16 22 -16 29 0
7 7 21 16 29 8 9 22 16 29 16 7 0 21 -7 29 -16z m-80 -51 c5 -11 -5 -29 -30
-54 -31 -32 -41 -37 -69 -32 -26 4 -36 0 -52 -21 -16 -19 -30 -26 -57 -26 -22
0 -36 5 -37 13 0 10 -2 10 -6 0 -3 -8 -24 -13 -53 -13 -67 0 -73 21 -22 73 35
34 42 38 61 28 18 -10 25 -8 49 17 26 28 31 30 118 31 77 1 93 -2 98 -16z m30
-29 c13 -5 16 -23 16 -94 0 -85 -1 -90 -30 -119 -27 -26 -29 -33 -19 -52 10
-19 6 -26 -28 -61 -52 -51 -73 -45 -73 23 0 32 4 49 13 50 10 0 10 2 0 6 -7 2
-13 21 -13 40 0 26 7 40 26 56 21 16 25 26 21 51 -4 25 1 38 31 69 20 20 37
37 38 37 1 0 9 -3 18 -6z m-410 -80 c9 -8 16 -22 16 -29 0 -18 -27 -45 -45
-45 -18 0 -45 27 -45 45 0 18 27 45 45 45 7 0 21 -7 29 -16z m300 0 c9 -8 16
-22 16 -29 0 -18 -27 -45 -45 -45 -7 0 -21 7 -29 16 -9 8 -16 22 -16 29 0 7 7
21 16 29 8 9 22 16 29 16 7 0 21 -7 29 -16z m-65 -65 c30 -29 31 -34 31 -114
0 -80 -1 -85 -31 -114 -29 -30 -34 -31 -119 -31 -79 0 -89 2 -95 19 -3 11 -15
23 -26 26 -17 6 -19 16 -19 95 0 83 2 91 28 118 26 28 31 30 114 31 84 1 87 0
117 -30z m225 -75 c9 -8 16 -22 16 -29 0 -7 -7 -21 -16 -29 -20 -20 -38 -20
-58 0 -9 8 -16 22 -16 29 0 18 27 45 45 45 7 0 21 -7 29 -16z m-460 -160 c9
-8 16 -22 16 -29 0 -7 -7 -21 -16 -29 -20 -20 -38 -20 -58 0 -9 8 -16 22 -16
29 0 18 27 45 45 45 7 0 21 -7 29 -16z m300 0 c9 -8 16 -22 16 -29 0 -18 -27
-45 -45 -45 -18 0 -45 27 -45 45 0 18 27 45 45 45 7 0 21 -7 29 -16z"/>
<path d="M261 464 c0 -11 3 -14 6 -6 3 7 2 16 -1 19 -3 4 -6 -2 -5 -13z"/>
<path d="M458 263 c7 -3 16 -2 19 1 4 3 -2 6 -13 5 -11 0 -14 -3 -6 -6z"/>
<path d="M261 364 c0 -11 3 -14 6 -6 3 7 2 16 -1 19 -3 4 -6 -2 -5 -13z"/>
<path d="M236 309 c-29 -23 -34 -60 -10 -83 44 -44 123 12 88 62 -26 38 -49
44 -78 21z m58 -15 c9 -8 16 -22 16 -29 0 -18 -27 -45 -45 -45 -18 0 -45 27
-45 45 0 7 7 21 16 29 8 9 22 16 29 16 7 0 21 -7 29 -16z"/>
<path d="M358 263 c7 -3 16 -2 19 1 4 3 -2 6 -13 5 -11 0 -14 -3 -6 -6z"/>
<path d="M190 199 c0 -5 5 -7 10 -4 6 3 10 8 10 11 0 2 -4 4 -10 4 -5 0 -10
-5 -10 -11z"/>
<path d="M160 170 c0 -5 5 -10 10 -10 6 0 10 5 10 10 0 6 -4 10 -10 10 -5 0
-10 -4 -10 -10z"/>
</g>
</svg>
