<?xml version="1.0" standalone="no"?>
<!DOCTYPE svg PUBLIC "-//W3C//DTD SVG 20010904//EN"
 "http://www.w3.org/TR/2001/REC-SVG-20010904/DTD/svg10.dtd">
<svg version="1.0" xmlns="http://www.w3.org/2000/svg"
 width="64.000000pt" height="66.000000pt" viewBox="0 0 64.000000 66.000000"
 preserveAspectRatio="xMidYMid meet">
<metadata>
Created by potrace 1.10, written by Peter Selinger 2001-2011
</metadata>
<g transform="translate(0.000000,66.000000) scale(0.100000,-0.100000)"
fill="#9197a1" stroke="none">
<path d="M415 580 c-4 -6 -58 -10 -131 -10 -112 0 -126 -2 -141 -20 -12 -14
-30 -20 -60 -20 -54 0 -73 -25 -73 -95 0 -71 19 -95 75 -95 34 0 47 -5 55 -20
9 -17 21 -20 70 -20 53 0 60 -2 60 -20 0 -11 5 -20 11 -20 8 0 8 -4 2 -12 -18
-23 -114 -240 -109 -246 5 -4 83 155 103 210 5 16 10 -15 13 -97 l6 -120 3
120 c2 100 4 116 14 95 6 -14 31 -67 54 -119 24 -51 46 -92 48 -89 5 5 -30 86
-88 206 -14 28 -21 52 -16 52 5 0 9 9 9 20 0 17 7 20 44 20 25 0 48 -4 51 -10
7 -12 124 -13 142 -2 52 33 57 236 7 287 -18 17 -139 22 -149 5z m78 -27 c-10
-16 -22 -31 -28 -35 -7 -5 -7 -8 0 -8 15 0 6 -70 -9 -70 -8 0 -8 -2 0 -8 15
-10 24 -72 10 -72 -7 0 -8 -3 -1 -8 6 -4 18 -19 28 -34 l17 -28 -45 0 c-44 0
-47 2 -62 38 -22 49 -22 165 0 215 15 35 18 37 62 37 l45 0 -17 -27z m74 -5
c37 -71 14 -258 -32 -258 -29 0 -49 61 -49 145 0 84 20 145 49 145 8 0 22 -15
32 -32z m-398 -23 c-28 -46 -24 -162 5 -194 16 -17 16 -21 4 -21 -23 0 -36 21
-49 77 -17 75 9 173 47 173 10 0 8 -9 -7 -35z m221 23 c0 -5 -17 -8 -37 -6
-32 2 -39 -1 -50 -22 -7 -14 -13 -52 -13 -85 0 -33 6 -71 13 -85 11 -21 18
-24 50 -22 20 2 37 -1 37 -7 0 -6 -37 -9 -97 -8 l-98 2 -15 30 c-21 42 -19
155 3 189 17 25 21 26 112 25 55 0 95 -5 95 -11z m-12 -30 c-5 -15 -68 -24
-68 -10 0 15 13 22 43 22 18 0 27 -4 25 -12z m-318 -17 c-13 -25 -13 -92 0
-126 8 -20 7 -26 -2 -23 -36 12 -48 117 -18 153 18 22 33 19 20 -4z m55 -66
c0 -73 -2 -85 -17 -85 -35 0 -49 118 -17 156 26 31 34 14 34 -71z m255 40 c0
-10 -11 -15 -35 -15 -33 0 -43 8 -28 23 13 14 63 7 63 -8z m0 -40 c0 -10 -11
-15 -35 -15 -24 0 -35 5 -35 15 0 10 11 15 35 15 24 0 35 -5 35 -15z m0 -41
c0 -11 -8 -14 -32 -12 -46 4 -49 28 -4 28 26 0 36 -4 36 -16z m8 -42 c3 -10
-5 -13 -29 -10 -18 2 -34 9 -37 16 -3 10 5 13 29 10 18 -2 34 -9 37 -16z m-68
-67 c0 -8 -7 -15 -15 -15 -8 0 -15 7 -15 15 0 8 7 15 15 15 8 0 15 -7 15 -15z"/>
<path d="M515 496 c-4 -19 -5 -42 -3 -52 2 -10 8 5 14 34 6 29 7 52 3 52 -5 0
-11 -15 -14 -34z"/>
<path d="M238 523 c7 -3 16 -2 19 1 4 3 -2 6 -13 5 -11 0 -14 -3 -6 -6z"/>
</g>
</svg>
