<?xml version="1.0" standalone="no"?>
<!DOCTYPE svg PUBLIC "-//W3C//DTD SVG 20010904//EN"
 "http://www.w3.org/TR/2001/REC-SVG-20010904/DTD/svg10.dtd">
<svg version="1.0" xmlns="http://www.w3.org/2000/svg"
 width="53.000000pt" height="58.000000pt" viewBox="0 0 53.000000 58.000000"
 preserveAspectRatio="xMidYMid meet">
<metadata>
Created by potrace 1.10, written by Peter Selinger 2001-2011
</metadata>
<g transform="translate(0.000000,58.000000) scale(0.100000,-0.100000)"
fill="#9197a1" stroke="none">
<path d="M209 518 c-25 -16 -73 -34 -107 -40 l-62 -12 0 -111 c0 -161 19 -204
128 -291 89 -70 82 -70 154 -15 129 98 148 137 148 301 l0 118 -47 7 c-47 7
-109 31 -148 58 -18 13 -25 11 -66 -15z m90 -14 c22 -14 67 -31 100 -37 l61
-12 0 -96 c0 -104 -16 -173 -49 -215 -11 -14 -51 -50 -88 -79 l-68 -53 -60 46
c-120 90 -145 142 -145 302 l0 95 61 12 c34 6 77 23 97 37 21 14 40 25 45 25
4 1 25 -11 46 -25z"/>
<path d="M207 472 c-27 -14 -65 -28 -85 -31 l-37 -6 -3 -99 c-4 -128 14 -167
105 -236 l66 -50 29 18 c16 9 52 38 78 63 59 57 72 97 68 215 l-3 87 -54 14
c-30 7 -68 22 -85 32 -31 18 -31 18 -79 -7z m41 -24 c2 -27 -7 -41 -60 -95
-54 -55 -98 -80 -98 -56 0 4 35 44 78 88 l77 80 -77 -75 c-70 -67 -78 -72 -78
-49 0 30 46 78 110 113 25 13 45 25 45 25 1 1 2 -13 3 -31z m130 -20 l42 -10
0 -64 0 -64 -80 0 -80 0 0 94 0 94 38 -19 c20 -11 56 -25 80 -31z m-259 -24
c-20 -22 -25 -23 -27 -9 -4 19 13 35 37 35 10 0 7 -8 -10 -26z m100 -80 c-20
-21 -43 -34 -58 -34 -24 0 -21 4 29 55 49 50 55 53 58 34 3 -14 -8 -33 -29
-55z m31 -9 c0 -20 -5 -25 -27 -25 l-26 0 23 25 c13 14 25 25 27 25 2 0 3 -11
3 -25z m0 -141 l0 -106 -47 35 c-56 40 -99 98 -108 145 l-7 32 81 0 81 0 0
-106z m85 56 c52 -53 54 -68 12 -94 -23 -14 -87 47 -87 83 0 24 3 23 53 -24
l52 -50 -52 55 c-29 31 -53 61 -53 68 0 24 27 11 75 -38z m38 22 c26 -27 36
-62 19 -62 -4 0 -28 20 -52 45 -42 43 -43 45 -19 45 15 0 37 -12 52 -28z m47
16 c-1 -33 -16 -38 -40 -13 l-23 25 31 0 c19 0 32 -5 32 -12z m-108 -160 c-17
-17 -52 17 -52 51 l0 26 32 -33 c25 -24 30 -34 20 -44z m-22 -18 c0 -4 -7 -10
-15 -14 -11 -4 -15 2 -15 21 0 21 2 24 15 13 8 -7 15 -16 15 -20z"/>
</g>
</svg>
