<?xml version="1.0" standalone="no"?>
<!DOCTYPE svg PUBLIC "-//W3C//DTD SVG 20010904//EN"
 "http://www.w3.org/TR/2001/REC-SVG-20010904/DTD/svg10.dtd">
<svg version="1.0" xmlns="http://www.w3.org/2000/svg"
 width="76.000000pt" height="65.000000pt" viewBox="0 0 76.000000 65.000000"
 preserveAspectRatio="xMidYMid meet">
<metadata>
Created by potrace 1.10, written by Peter Selinger 2001-2011
</metadata>
<g transform="translate(0.000000,65.000000) scale(0.100000,-0.100000)"
fill="#817979" stroke="none">
<path d="M465 590 c-12 -13 -16 -28 -12 -48 7 -33 -14 -69 -47 -82 -21 -9 -21
-9 0 -9 11 -1 30 12 41 28 17 22 27 27 48 24 52 -11 86 55 47 90 -25 23 -55
21 -77 -3z m69 -6 c9 -8 16 -22 16 -29 0 -16 -27 -45 -42 -45 -16 0 -48 31
-48 46 0 17 28 44 45 44 7 0 21 -7 29 -16z"/>
<path d="M250 551 c0 -36 -35 -49 -63 -24 -17 16 -20 14 -59 -25 -41 -40 -41
-42 -24 -61 22 -24 8 -58 -26 -63 -21 -3 -23 -8 -23 -63 0 -57 1 -60 24 -60
35 -1 50 -38 26 -65 -19 -20 -18 -22 23 -62 40 -41 42 -41 61 -24 29 26 61 13
61 -25 0 -29 0 -29 60 -29 l60 0 -1 33 c-2 30 -2 30 -6 5 -4 -26 -7 -28 -55
-28 -48 0 -50 1 -46 25 4 20 -1 28 -25 40 -27 14 -32 14 -49 -2 -18 -16 -20
-15 -51 16 l-32 32 25 21 c17 15 21 22 12 25 -7 3 -17 16 -22 29 -7 17 -17 24
-35 24 -23 0 -25 4 -25 45 0 41 2 45 25 45 35 0 60 56 37 83 -15 16 -13 20 16
49 29 29 33 31 49 16 15 -13 22 -13 49 -2 26 11 31 17 27 39 -5 24 -4 25 45
25 50 0 51 -1 55 -32 4 -32 4 -32 5 5 l2 37 -60 0 c-59 0 -60 0 -60 -29z"/>
<path d="M602 465 c-17 -21 -28 -25 -70 -25 -42 0 -54 -4 -70 -25 -18 -23 -26
-25 -99 -25 -71 0 -83 -3 -107 -25 -57 -53 -18 -146 61 -144 l38 1 -39 8 c-72
14 -98 79 -51 125 22 22 33 25 104 25 73 0 81 2 99 25 16 20 29 25 67 25 38 0
51 -5 67 -25 23 -29 58 -32 81 -7 22 24 21 55 -1 75 -26 24 -57 21 -80 -8z
m72 -1 c9 -8 16 -22 16 -29 0 -7 -7 -21 -16 -29 -8 -9 -22 -16 -29 -16 -7 0
-21 7 -29 16 -9 8 -16 22 -16 29 0 7 7 21 16 29 8 9 22 16 29 16 7 0 21 -7 29
-16z"/>
<path d="M242 443 c-53 -26 -77 -68 -77 -138 0 -106 58 -155 183 -155 66 0 72
-2 90 -28 13 -18 18 -37 15 -55 -11 -54 54 -89 90 -49 36 40 3 99 -48 89 -20
-3 -31 2 -47 23 -19 26 -26 28 -102 32 -72 3 -87 7 -119 31 -97 74 -58 228 65
255 37 8 39 10 13 11 -16 0 -45 -7 -63 -16z m292 -359 c9 -8 16 -22 16 -29 0
-18 -27 -45 -45 -45 -18 0 -45 27 -45 45 0 18 27 45 45 45 7 0 21 -7 29 -16z"/>
<path d="M348 453 c6 -2 18 -2 25 0 6 3 1 5 -13 5 -14 0 -19 -2 -12 -5z"/>
<path d="M602 335 c-17 -22 -28 -24 -108 -28 l-89 -3 89 -2 c81 -2 90 -4 108
-27 23 -29 58 -32 81 -7 22 24 21 55 -1 75 -26 24 -57 21 -80 -8z m72 -1 c9
-8 16 -22 16 -29 0 -18 -27 -45 -45 -45 -18 0 -45 27 -45 45 0 18 27 45 45 45
7 0 21 -7 29 -16z"/>
<path d="M318 303 c6 -2 18 -2 25 0 6 3 1 5 -13 5 -14 0 -19 -2 -12 -5z"/>
<path d="M368 303 c6 -2 18 -2 25 0 6 3 1 5 -13 5 -14 0 -19 -2 -12 -5z"/>
<path d="M368 223 c6 -2 18 -2 25 0 6 3 1 5 -13 5 -14 0 -19 -2 -12 -5z"/>
<path d="M425 221 c11 -5 29 -18 39 -30 15 -16 31 -21 69 -21 41 0 53 -4 69
-25 23 -29 58 -32 81 -7 22 24 21 55 -1 75 -26 24 -57 21 -80 -8 -29 -36 -105
-36 -134 0 -11 14 -29 25 -41 24 -21 0 -21 -1 -2 -8z m249 -17 c9 -8 16 -22
16 -29 0 -18 -27 -45 -45 -45 -18 0 -45 27 -45 45 0 18 27 45 45 45 7 0 21 -7
29 -16z"/>
</g>
</svg>
