<?xml version="1.0" standalone="no"?>
<!DOCTYPE svg PUBLIC "-//W3C//DTD SVG 20010904//EN"
 "http://www.w3.org/TR/2001/REC-SVG-20010904/DTD/svg10.dtd">
<svg version="1.0" xmlns="http://www.w3.org/2000/svg"
 width="72.000000pt" height="63.000000pt" viewBox="0 0 72.000000 63.000000"
 preserveAspectRatio="xMidYMid meet">
<metadata>
Created by potrace 1.10, written by Peter Selinger 2001-2011
</metadata>
<g transform="translate(0.000000,63.000000) scale(0.100000,-0.100000)"
fill="#817979" stroke="none">
<path d="M302 597 c-6 -7 -12 -33 -14 -57 -4 -62 -31 -63 -38 -1 -6 50 -29 73
-57 55 -14 -8 -19 -29 -23 -85 -4 -58 -8 -74 -22 -77 -16 -3 -34 30 -25 45 9
16 -13 53 -31 53 -35 0 -42 -20 -42 -131 0 -81 3 -109 15 -119 21 -17 50 -8
53 17 4 26 27 47 42 38 6 -4 10 -53 10 -124 0 -120 6 -141 42 -141 25 0 40 36
36 86 -2 24 0 44 3 44 11 0 37 -35 40 -54 6 -28 35 -43 57 -30 11 8 18 27 20
60 2 33 10 56 24 71 20 22 23 22 40 6 17 -15 19 -15 38 2 22 20 27 7 9 -26 -8
-16 -7 -25 8 -41 10 -11 18 -25 18 -32 0 -6 34 -44 76 -84 l76 -72 19 21 c19
21 18 21 -72 109 l-91 88 29 78 29 79 -41 35 c-37 33 -40 39 -40 87 0 56 -16
79 -50 68 -11 -3 -21 -9 -21 -13 -1 -4 -3 -17 -4 -30 -1 -13 -7 -28 -13 -34
-19 -19 -32 2 -32 51 0 26 -5 52 -12 59 -16 16 -43 15 -56 -1z m48 -43 c0 -54
14 -84 38 -84 26 0 42 20 42 51 0 15 7 29 15 32 18 8 21 3 30 -53 7 -40 6 -43
-8 -31 -9 7 -24 10 -35 7 -22 -7 -222 -208 -222 -224 0 -6 5 -14 10 -17 14 -8
13 -142 -1 -151 -22 -13 -28 14 -30 121 0 61 -5 118 -10 128 -18 32 -69 14
-69 -24 0 -24 -18 -33 -35 -19 -11 9 -15 36 -15 109 0 53 4 102 9 110 16 25
41 4 41 -33 0 -44 24 -70 50 -56 25 13 31 36 29 104 -2 61 2 72 26 63 10 -4
15 -19 15 -45 0 -41 14 -62 42 -62 23 0 38 30 38 79 0 34 3 41 20 41 17 0 20
-7 20 -46z m129 -111 c17 -15 31 -34 31 -43 0 -16 -198 -220 -214 -220 -16 0
-66 53 -66 69 0 15 197 221 211 221 4 0 21 -12 38 -27z m47 -153 c-24 -69 -26
-83 -15 -98 12 -15 12 -16 -2 -5 -11 9 -16 32 -17 86 -1 62 2 77 18 92 11 10
17 23 13 29 -3 6 3 3 13 -7 18 -17 18 -19 -10 -97z m-50 13 c-2 -16 -5 -31 -5
-35 -2 -13 -41 -9 -41 4 0 11 38 58 47 58 2 0 2 -12 -1 -27z m-125 -135 c-7
-47 -33 -61 -39 -20 -3 18 20 50 44 62 0 0 -2 -19 -5 -42z m262 -64 c90 -94
70 -107 -26 -17 -55 51 -71 71 -63 80 6 7 13 11 16 10 3 -1 36 -34 73 -73z"/>
<path d="M516 329 c-10 -27 -16 -52 -13 -55 3 -3 13 18 22 46 22 67 14 75 -9
9z"/>
</g>
</svg>
